<?xml version="1.0" encoding="UTF-8" standalone="no"?>
<svg
   xmlns:dc="http://purl.org/dc/elements/1.1/"
   xmlns:cc="http://creativecommons.org/ns#"
   xmlns:rdf="http://www.w3.org/1999/02/22-rdf-syntax-ns#"
   xmlns:svg="http://www.w3.org/2000/svg"
   xmlns="http://www.w3.org/2000/svg"
   id="svg8"
   version="1.1"
   viewBox="0 0 171.48096 42.925999"
   height="42.925999mm"
   width="171.48096mm">
  <defs
     id="defs2" />
  <metadata
     id="metadata5">
    <rdf:RDF>
      <cc:Work
         rdf:about="">
        <dc:format>image/svg+xml</dc:format>
        <dc:type
           rdf:resource="http://purl.org/dc/dcmitype/StillImage" />
        <dc:title></dc:title>
      </cc:Work>
    </rdf:RDF>
  </metadata>
  <g
     transform="translate(-15.899413,-67.480869)"
     id="layer1">
    <flowRoot
       transform="scale(0.26458333)"
       style="font-style:normal;font-variant:normal;font-weight:normal;font-stretch:normal;font-size:192px;line-height:1.25;font-family:'Keep Calm';-inkscape-font-specification:'Keep Calm';letter-spacing:0px;word-spacing:0px;fill:#000000;fill-opacity:1;stroke:none"
       id="flowRoot10"
       xml:space="preserve"><flowRegion
         id="flowRegion12"><rect
           y="191.09111"
           x="88.571426"
           height="422.85715"
           width="491.42856"
           id="rect14" /></flowRegion><flowPara
         id="flowPara16">latinu</flowPara></flowRoot>    <g
       id="flowRoot18"
       style="font-style:normal;font-variant:normal;font-weight:normal;font-stretch:normal;font-size:192px;line-height:1.25;font-family:'Keep Calm';-inkscape-font-specification:'Keep Calm';letter-spacing:0px;word-spacing:0px;fill:#f44336;fill-opacity:1;stroke:none"
       transform="matrix(0.26458333,0,0,0.26458333,111.125,28.726191)"
       aria-label="latinux">
      <path
         id="path820"
         style=""
         d="m -313.05973,305.25837 q -3.264,1.536 -7.488,2.49601 -4.032,0.96 -8.448,0.96 -6.144,0 -11.904,-1.72801 -5.568,-1.536 -9.792,-5.18399 -4.224,-3.648 -6.72,-9.408 -2.496,-5.952 -2.496,-14.20801 v -131.712 h 28.224 v 126.91201 q 0,6.912 2.688,9.59999 2.88,2.49601 6.72,2.49601 4.8,0 9.216,-2.88 z" />
      <path
         id="path822"
         style=""
         d="m -209.29273,305.83438 h -27.84 v -5.952 q -7.296,4.992 -15.552,6.91199 -8.064,1.92001 -16.704,1.92001 -8.064,0 -14.592,-2.496 -6.528,-2.30401 -11.328,-6.72001 -4.8,-4.608 -7.488,-10.752 -2.496,-6.14399 -2.496,-13.632 0,-9.40799 4.032,-16.32 4.224,-7.10399 11.328,-11.71199 7.104,-4.80001 16.512,-7.104 9.6,-2.304 20.544,-2.304 h 15.936 q 0,-9.792 -6.336,-15.552 -6.336,-5.76 -18.24,-5.76 -5.76,0 -11.904,2.11199 -6.144,2.11201 -12.288,7.68001 l -16.32,-16.512 q 8.832,-8.44801 20.352,-13.05601 11.712,-4.60799 24,-4.60799 11.52,0 20.544,3.64799 9.024,3.64801 14.592,9.408 7.296,7.29601 10.176,16.32 3.072,9.024 3.072,23.04001 z m -27.84,-27.64801 v -20.54399 h -12.672 q -5.76,0 -10.944,0.768 -4.992,0.768 -8.832,2.688 -3.648,1.728 -5.952,4.608 -2.112,2.88 -2.112,6.912 0,5.75999 4.416,9.408 4.608,3.64799 11.712,3.64799 6.144,0 12.096,-1.91999 6.144,-1.92 12.288,-5.56801 z" />
      <path
         id="path824"
         style=""
         d="m -126.33373,303.33838 q -4.224,2.688 -9.792,4.032 -5.568,1.344 -11.136,1.344 -9.792,0 -16.512,-2.496 -6.72,-2.30401 -10.752,-7.296 -4.032,-4.992 -5.952,-12.672 -1.728,-7.68 -1.728,-18.048 v -48.576 h -14.592 v -12.48 q 13.44,-5.568 21.696,-16.512 8.448,-10.944 11.52,-28.416 h 9.024 v 32.448 h 28.032 v 24.96 h -28.032 v 50.496 q 0,4.224 0.96,6.91199 1.152,2.688 2.88,4.224 1.728,1.536 3.84,2.11201 2.304,0.576 4.8,0.576 3.264,0 7.872,-1.15201 4.608,-1.15199 7.872,-3.83999 z" />
      <path
         id="path826"
         style=""
         d="m -81.357734,175.46638 h -28.799996 v -28.8 h 28.799996 z m -0.384,130.368 h -28.031996 v -111.168 h 28.031996 z" />
      <path
         id="path828"
         style=""
         d="m 44.459266,305.83438 h -27.648 v -66.24 q 0,-5.952 -1.92,-10.368 -1.728,-4.608 -4.8,-7.488 -3.0720004,-3.072 -7.1040004,-4.416 -3.83999997,-1.536 -8.064,-1.536 -6.3359996,0 -12.4799996,2.304 -6.144,2.112 -11.136,6.912 v 80.832 h -27.84 v -110.976 h 27.84 v 8.256 q 2.496,-2.496 6.144,-4.608 3.648,-2.112 7.488,-3.456 4.032,-1.536 8.0639996,-2.304 4.224,-0.768 8.064,-0.768 8.448,0 16.1280004,2.688 7.872,2.68799 13.824,8.256 6.144,5.568 9.792,14.4 3.648,8.832 3.648,20.928 z" />
      <path
         id="path830"
         style=""
         d="m 164.02127,305.83438 h -27.648 v -8.448 q -2.688,2.688 -6.336,4.79999 -3.456,1.92001 -7.488,3.45601 -3.84,1.34399 -8.064,2.112 -4.032,0.76799 -7.68,0.76799 -8.448004,0 -16.320004,-2.68799 -7.68,-2.688 -13.632,-8.256 -5.952,-5.56801 -9.6,-14.4 -3.456,-8.832 -3.456,-20.928 v -67.392 h 27.648 v 66.048 q 0,5.952 1.728,10.56 1.92,4.416 4.8,7.488 3.072004,2.88 6.912004,4.416 4.032,1.344 8.256,1.344 13.44,0 23.232,-9.21601 v -80.63999 h 27.648 z" />
      <path
         id="path832"
         style=""
         d="m 288.20927,306.02638 h -31.68 l -23.04,-35.52 -23.232,35.52 h -31.68 l 39.552,-58.176 -36.288,-53.184 h 31.296 l 20.352,31.104 20.16,-31.104 h 31.488 l -36.48,53.184 z" />
    </g>
  </g>
</svg>
